<?xml version="1.0" encoding="iso-8859-1"?>
<!-- Generator: Adobe Illustrator 19.0.0, SVG Export Plug-In . SVG Version: 6.00 Build 0)  -->
<svg version="1.1" id="Layer_1" xmlns="http://www.w3.org/2000/svg" xmlns:xlink="http://www.w3.org/1999/xlink" x="0px" y="0px"
	 viewBox="0 0 512 512" style="enable-background:new 0 0 512 512;" xml:space="preserve">
<rect x="220.69" y="216.276" style="fill:#625D6B;" width="17.655" height="26.483"/>
<path style="fill:#736F7B;" d="M273.655,242.759H256V197.11c0-7.026,2.791-13.763,7.758-18.731l4.534-4.534
	c1.952-1.952,5.117-1.952,7.069,0l5.414,5.414c1.952,1.952,1.952,5.117,0,7.069l-4.534,4.534c-1.656,1.656-2.586,3.902-2.586,6.243
	v45.654H273.655z"/>
<polygon style="fill:#A7A5AC;" points="404.638,324.888 367.25,275.996 374.268,270.634 411.656,319.526 "/>
<polygon style="fill:#736F7B;" points="185.379,128 35.31,128 35.31,286.897 194.207,286.897 194.207,233.931 "/>
<path style="fill:#625D6B;" d="M148.478,278.069h20.849c4.203,0,7.822-2.963,8.653-7.082l6.159-30.543
	c0.822-4.076,1.064-8.248,0.718-12.392l-6.193-74.302c-0.382-4.575-4.206-8.095-8.797-8.095h-28.627
	c-4.875,0-8.828,3.953-8.828,8.828v75.078c0,2.906,0.287,5.806,0.857,8.657l6.551,32.756
	C140.648,275.098,144.27,278.069,148.478,278.069z"/>
<polygon style="fill:#8D8A94;" points="308.966,242.759 194.207,233.931 185.379,286.897 308.966,286.897 "/>
<path style="fill:#625D6B;" d="M105.931,225.103H61.793c-4.875,0-8.828-3.953-8.828-8.828v-61.793c0-4.875,3.953-8.828,8.828-8.828
	h44.138c4.875,0,8.828,3.953,8.828,8.828v61.793C114.759,221.151,110.806,225.103,105.931,225.103z"/>
<rect x="70.621" y="128" style="fill:#FFC84B;" width="26.483" height="114.759"/>
<path style="fill:#FFDC5A;" d="M8.828,233.931h107.278c4.316,0,7.998,3.119,8.707,7.375l6.371,38.214
	c0.71,4.256,4.393,7.375,8.707,7.375h145.052c3.799,0,7.174-2.431,8.374-6.036l13.631-40.894c1.202-3.605,4.575-6.036,8.374-6.036
	h55.436v132.414H97.102l0.001-79.447H8.828c-4.875,0-8.828-3.953-8.828-8.828v-35.31C0,237.884,3.953,233.931,8.828,233.931z"/>
<path style="fill:#504B5A;" d="M291.31,392.828H44.138C19.762,392.828,0,373.066,0,348.69l0,0c0-24.376,19.762-44.138,44.138-44.138
	H291.31c24.376,0,44.138,19.762,44.138,44.138l0,0C335.448,373.066,315.687,392.828,291.31,392.828z"/>
<rect x="44.138" y="331.034" style="fill:#FFC84B;" width="247.172" height="44.138"/>
<g>
	<circle style="fill:#FFDC5A;" cx="44.138" cy="348.69" r="26.483"/>
	<circle style="fill:#FFDC5A;" cx="291.31" cy="348.69" r="26.483"/>
</g>
<rect x="348.718" y="274.481" transform="matrix(-0.3164 -0.9486 0.9486 -0.3164 144.0956 792.3707)" style="fill:#FFC84B;" width="17.655" height="139.572"/>
<path style="fill:#8D8A94;" d="M436.966,375.172H207.448c-2.438,0-4.414-1.976-4.414-4.414v-8.828c0-2.438,1.976-4.414,4.414-4.414
	h229.517c2.438,0,4.414,1.976,4.414,4.414v8.828C441.379,373.196,439.403,375.172,436.966,375.172z"/>
<path style="fill:#A7A5AC;" d="M432.552,366.345v-57.379c0-2.438,1.976-4.414,4.414-4.414h8.118c3.168,0,6.093,1.697,7.665,4.448
	l32.769,57.345h17.655c4.875,0,8.828,3.953,8.828,8.828l0,0c0,4.875-3.953,8.828-8.828,8.828h-52.966
	C440.456,384,432.552,376.096,432.552,366.345z"/>
<path style="fill:#FFDC5A;" d="M414.897,357.517h17.655v-57.379c0-2.438-1.976-4.414-4.414-4.414h-8.828
	c-2.438,0-4.414,1.976-4.414,4.414V357.517z"/>
<path style="fill:#FFC84B;" d="M194.207,286.897H17.655l6.388,12.776c1.495,2.99,4.552,4.879,7.895,4.879h162.269V286.897z"/>
<path style="fill:#FFDC5A;" d="M185.379,136.828H26.483c-4.875,0-8.828-3.953-8.828-8.828l0,0c0-4.875,3.953-8.828,8.828-8.828
	h158.897c4.875,0,8.828,3.953,8.828,8.828l0,0C194.207,132.875,190.254,136.828,185.379,136.828z"/>
<path style="fill:#FFC84B;" d="M378.237,297.62l-73.63-96.284c-1.463-1.913-1.099-4.652,0.814-6.115l7.086-5.422
	c1.914-1.464,4.653-1.099,6.116,0.814l73.631,96.284c1.463,1.913,1.099,4.652-0.814,6.115l-7.086,5.422
	C382.44,299.898,379.701,299.534,378.237,297.62z"/>
<path style="fill:#736F7B;" d="M242.759,225.103h-26.483c-2.438,0-4.414-1.976-4.414-4.414v-8.828c0-2.438,1.976-4.414,4.414-4.414
	h26.483c2.438,0,4.414,1.976,4.414,4.414v8.828C247.172,223.127,245.196,225.103,242.759,225.103z"/>
<g>
</g>
<g>
</g>
<g>
</g>
<g>
</g>
<g>
</g>
<g>
</g>
<g>
</g>
<g>
</g>
<g>
</g>
<g>
</g>
<g>
</g>
<g>
</g>
<g>
</g>
<g>
</g>
<g>
</g>
</svg>
