<?xml version="1.0" encoding="iso-8859-1"?>
<!-- Generator: Adobe Illustrator 19.0.0, SVG Export Plug-In . SVG Version: 6.00 Build 0)  -->
<svg version="1.1" id="Layer_1" xmlns="http://www.w3.org/2000/svg" xmlns:xlink="http://www.w3.org/1999/xlink" x="0px" y="0px"
	 viewBox="0 0 508 508" style="enable-background:new 0 0 508 508;" xml:space="preserve">
<circle style="fill:#b5e555;" cx="254" cy="254" r="254"/>
<rect x="209.6" y="268" style="fill:#2B3B4E;" width="154.8" height="44.4"/>
<path style="fill:#F9B54C;" d="M230,274h82c-0.8-6.8-4-13.2-8.8-18.8l-128.4-144l-2.4-2.8c-2-2-4-3.6-6.8-4.8
	c-10-4.4-21.6,0.4-26,10.4l-58,136.4c-1.2,2.8-0.4,6.4,2.4,8c3.2,2,7.2,1.2,9.2-1.6L158,162L230,274z"/>
<path style="fill:#324A5E;" d="M306,252H204.4v-68c0-24,19.2-43.2,43.2-43.2h17.6c16,0,29.2,12,30.8,27.6L306,252z"/>
<g>
	<path style="fill:#84DBFF;" d="M293.2,209.6l-24.8,4v-64.8c10.4,1.2,18.8,9.6,20,20.4L293.2,209.6z"/>
	<path style="fill:#84DBFF;" d="M259.2,148.4v66.4l-46.8,7.2v-38.4c0-19.6,15.6-35.2,35.2-35.2L259.2,148.4L259.2,148.4z"/>
</g>
<path style="fill:#324A5E;" d="M379.2,382.8H196.4c-22.8,0-41.2-18.4-41.2-41.2l0,0c0-22.8,18.4-41.2,41.2-41.2h182.8
	c22.8,0,41.2,18.4,41.2,41.2l0,0C420.4,364.4,402,382.8,379.2,382.8z"/>
<g>
	<circle style="fill:#2B3B4E;" cx="378.4" cy="341.6" r="20.8"/>
	<circle style="fill:#2B3B4E;" cx="320" cy="341.6" r="20.8"/>
	<circle style="fill:#2B3B4E;" cx="262" cy="341.6" r="20.8"/>
	<circle style="fill:#2B3B4E;" cx="197.6" cy="341.6" r="20.8"/>
</g>
<path style="fill:#FFD05B;" d="M378.4,288.8H197.6c-6,0-10.8-4.8-10.8-10.8v-24c0-6,4.8-10.8,10.8-10.8h116c3.6,0,7.2-2,9.6-4.8
	l7.6-11.2c2-3.2,5.6-4.8,9.6-4.8h37.2c6.4,0,11.6,5.2,11.6,11.6v44C388.8,284,384,288.8,378.4,288.8z"/>
<path style="fill:#FFFFFF;" d="M59.6,244.8c0,0-13.6,92.8,97.2,45.2c0,0-37.6-3.6-58.8-54.8C98,235.2,65.2,243.2,59.6,244.8z"/>
<circle style="fill:#324A5E;" cx="157.6" cy="120.4" r="9.2"/>
<circle style="fill:#E6E9EE;" cx="92.8" cy="246" r="6.4"/>
<g>
	<path style="fill:#F9B54C;" d="M335.6,240.8L335.6,240.8c0,1.6,1.2,3.2,3.2,3.2h38c1.6,0,3.2-1.2,3.2-3.2l0,0
		c0-1.6-1.2-3.2-3.2-3.2h-38C336.8,237.6,335.6,238.8,335.6,240.8z"/>
	<path style="fill:#F9B54C;" d="M335.6,256.8L335.6,256.8c0,1.6,1.2,3.2,3.2,3.2h38c1.6,0,3.2-1.2,3.2-3.2l0,0
		c0-1.6-1.2-3.2-3.2-3.2h-38C336.8,253.6,335.6,255.2,335.6,256.8z"/>
	<path style="fill:#F9B54C;" d="M335.6,272.8L335.6,272.8c0,1.6,1.2,3.2,3.2,3.2h38c1.6,0,3.2-1.2,3.2-3.2l0,0
		c0-1.6-1.2-3.2-3.2-3.2h-38C336.8,270,335.6,271.2,335.6,272.8z"/>
</g>
<g>
</g>
<g>
</g>
<g>
</g>
<g>
</g>
<g>
</g>
<g>
</g>
<g>
</g>
<g>
</g>
<g>
</g>
<g>
</g>
<g>
</g>
<g>
</g>
<g>
</g>
<g>
</g>
<g>
</g>
</svg>
