<?xml version="1.0" encoding="UTF-8" standalone="no"?>
<!-- Created with Inkscape (http://www.inkscape.org/) -->

<svg
   xmlns:dc="http://purl.org/dc/elements/1.1/"
   xmlns:cc="http://creativecommons.org/ns#"
   xmlns:rdf="http://www.w3.org/1999/02/22-rdf-syntax-ns#"
   xmlns:svg="http://www.w3.org/2000/svg"
   xmlns="http://www.w3.org/2000/svg"
   xmlns:sodipodi="http://sodipodi.sourceforge.net/DTD/sodipodi-0.dtd"
   xmlns:inkscape="http://www.inkscape.org/namespaces/inkscape"
   width="90px"
   height="45px"
   viewBox="0 0 140 75"
   version="1.1"
   id="SVGRoot"
   inkscape:version="0.92.2 (5c3e80d, 2017-08-06)"
   sodipodi:docname="ServiceLogov2.svg">
  <sodipodi:namedview
     id="base"
     pagecolor="#ffffff"
     bordercolor="#666666"
     borderopacity="1.0"
     inkscape:pageopacity="0.0"
     inkscape:pageshadow="2"
     inkscape:zoom="3.6571429"
     inkscape:cx="70"
     inkscape:cy="37.5"
     inkscape:document-units="px"
     inkscape:current-layer="layer1"
     showgrid="false"
     inkscape:window-width="1680"
     inkscape:window-height="1027"
     inkscape:window-x="-8"
     inkscape:window-y="-8"
     inkscape:window-maximized="1" />
  <defs
     id="defs217" />
  <metadata
     id="metadata220">
    <rdf:RDF>
      <cc:Work
         rdf:about="">
        <dc:format>image/svg+xml</dc:format>
        <dc:type
           rdf:resource="http://purl.org/dc/dcmitype/StillImage" />
        <dc:title></dc:title>
      </cc:Work>
    </rdf:RDF>
  </metadata>
  <g
     id="layer1"
     inkscape:groupmode="layer"
     inkscape:label="Layer 1">
    <g
       id="g1428"
       transform="translate(-26.021544,-63.224314)">
      <path
         style="fill:#af4339;stroke-width:1.0666666"
         d="m 31.466666,93.936793 c -6.282394,-0.644546 -6.194191,-0.672051 4.8,-1.496817 14.916949,-1.119043 51.124776,-0.490572 51.468447,0.893356 0.298153,1.20063 -45.645205,1.693359 -56.268447,0.603461 z m 35.733333,-7.371474 c 0,-1.829891 4.12079,-4.498982 18.15728,-11.760713 22.132491,-11.450168 27.004201,-12.366387 39.966701,-7.516497 5.80596,2.17229 34.97669,19.067226 32.97007,19.095416 -0.64494,0.0091 -8.17014,-3.34056 -16.72266,-7.443602 -18.91075,-9.07237 -25.72954,-11.065182 -32.59616,-9.526338 -5.01385,1.123628 -15.836312,6.067262 -30.041898,13.722957 -7.702006,4.150777 -11.733333,5.328833 -11.733333,3.428777 z"
         id="path1432"
         inkscape:connector-curvature="0" />
      <path
         style="fill:#ffffff;stroke-width:1.0666666"
         d="m 61.927731,136.59364 c -1.109296,-0.70184 -0.367295,-1.06952 2.657795,-1.31699 5.618396,-0.45962 6.081104,-3.07927 1.066485,-6.03796 -2.767698,-1.63299 -3.785345,-2.96709 -3.785345,-4.96246 0,-3.31019 4.008739,-5.27238 7.722706,-3.78007 2.487423,0.99948 2.163026,1.19981 -2.389373,1.47561 -3.810398,0.23085 -3.494529,3.7974 0.533333,6.02201 3.804028,2.10099 4.812387,6.17915 2.030763,8.21312 -2.208316,1.61476 -5.628658,1.78356 -7.836364,0.38674 z m 15.109608,-0.65412 c -1.656234,-1.16008 -2.370674,-2.74913 -2.370674,-5.27286 0,-2.52372 0.71444,-4.11277 2.370674,-5.27285 3.050834,-2.13688 3.594649,-2.09516 6.16266,0.47285 3.506693,3.5067 2.74925,5.33334 -2.211546,5.33334 -3.56158,0 -4.281129,0.33652 -3.991265,1.86666 0.233427,1.23222 1.535792,1.98079 3.831796,2.20243 1.913,0.18467 3.200741,0.78467 2.861646,1.33333 -0.930064,1.50488 -3.994222,1.19958 -6.653291,-0.6629 z m 4.873942,-8.61871 c -0.960223,-0.96023 -2.503081,-1.4553 -3.428572,-1.10015 -2.899575,1.11267 -1.836275,2.846 1.745861,2.846 3.174928,0 3.299414,-0.12916 1.682711,-1.74585 z M 88.533332,131.2 c 0,-3.98717 0.406383,-6.27474 1.044622,-5.88029 0.574543,0.35508 2.014543,0.12653 3.2,-0.50791 1.30561,-0.69875 2.155378,-0.74653 2.155378,-0.12121 0,0.56778 -0.96,1.337 -2.133333,1.70941 -1.70494,0.54113 -2.133334,1.6139 -2.133334,5.34226 0,2.56584 -0.48,4.96182 -1.066666,5.3244 -0.666715,0.41206 -1.066667,-1.78768 -1.066667,-5.86666 z m 11.765898,4.32752 c -2.538903,-4.74399 -4.31297,-10.90988 -3.014484,-10.47705 0.686722,0.22891 1.954926,2.53521 2.818234,5.12513 1.67684,5.03054 1.69827,5.01862 4.38708,-2.44227 0.58142,-1.61333 1.54201,-2.93333 2.13464,-2.93333 1.07979,0 -2.52599,10.39519 -4.20217,12.11452 -0.49036,0.50298 -1.44584,-0.12117 -2.1233,-1.387 z m 9.56743,-4.26457 c 0,-3.59752 0.47292,-6.46295 1.06667,-6.46295 0.58667,0 1.06667,2.61167 1.06667,5.80371 0,3.19204 -0.48,6.10037 -1.06667,6.46295 -0.66628,0.41179 -1.06667,-1.76669 -1.06667,-5.80371 z m 7.64567,4.63569 c -3.63937,-2.54911 -2.90242,-8.94756 1.2592,-10.93286 2.21243,-1.05544 3.3576,-1.12998 4.21333,-0.27425 0.85574,0.85573 0.57281,1.17513 -1.04093,1.17513 -3.03132,0 -4.83325,2.47356 -4.42101,6.06884 0.27265,2.3778 0.95418,3.068 3.29516,3.3371 1.62328,0.18659 2.67495,0.78659 2.33705,1.33333 -0.90509,1.46447 -2.899,1.21455 -5.6428,-0.70729 z m 12.43696,0.98199 c -2.32287,-0.61442 -4.02619,-5.5854 -2.9296,-8.54976 1.93126,-5.22073 9.51364,-5.08675 9.51364,0.16809 0,2.44402 -0.40956,2.70104 -4.30419,2.70104 -4.04227,0 -4.23123,0.13634 -3.10513,2.24048 0.90681,1.69441 1.95586,2.1294 4.30419,1.78473 3.30576,-0.48518 4.23466,0.64644 1.41789,1.72733 -1.77987,0.68301 -2.05825,0.67891 -4.8968,-0.0719 z m 4.18404,-9.1473 C 133.88888,127 132.80888,126.4 131.73333,126.4 c -1.07555,0 -2.15555,0.6 -2.4,1.33333 -0.28148,0.84445 0.59852,1.33333 2.4,1.33333 1.80148,0 2.68148,-0.48888 2.4,-1.33333 z m -24.26667,-6.72962 c 0,-0.91462 0.48783,-1.36145 1.08407,-0.99296 0.59623,0.36849 0.80791,1.11682 0.47038,1.66295 -0.91438,1.47951 -1.55445,1.20364 -1.55445,-0.66999 z m -80.803528,-7.13705 c 0.270256,-0.73333 1.560746,-4.57333 2.867754,-8.53333 2.032134,-6.157001 2.737478,-7.199998 4.869113,-7.199998 2.131636,0 2.83698,1.042997 4.869114,7.199998 1.307008,3.96 2.597498,7.8 2.867754,8.53333 0.271462,0.73661 -0.320466,1.33334 -1.322607,1.33334 -0.99769,0 -2.065029,-0.96 -2.371862,-2.13334 -0.400277,-1.53066 -1.45495,-2.13333 -3.733333,-2.13333 -2.278383,0 -3.333056,0.60267 -3.733333,2.13333 -0.322154,1.23192 -1.454951,2.13334 -2.680927,2.13334 -1.249394,0 -1.920843,-0.54868 -1.631673,-1.33334 z m 8.942506,-8.53333 c -0.353746,-1.32 -0.683467,-2.88 -0.732712,-3.46666 -0.111829,-1.33227 -1.895736,2.71539 -1.997956,4.53333 -0.04124,0.73333 0.701012,1.33333 1.649436,1.33333 1.267733,0 1.554076,-0.63559 1.081232,-2.4 z m 10.109573,8.48855 c -0.650033,-0.65003 -1.181878,-3.48588 -1.181878,-6.30188 0,-3.84 0.4,-5.12 1.6,-5.12 1.157632,0 1.6,1.1889 1.6,4.30014 0,2.95884 0.53265,4.50454 1.707653,4.95543 2.192209,0.84123 3.58866,-1.39848 3.609346,-5.7889 0.01113,-2.36312 0.525667,-3.46667 1.616334,-3.46667 1.239624,0 1.6,1.40345 1.6,6.23106 v 6.23105 l -4.684788,0.0708 c -2.576633,0.0389 -5.216633,-0.46103 -5.866667,-1.11106 z m 16.151455,0.69142 c -0.781222,-0.3268 -1.333334,-2.50854 -1.333334,-5.26885 0,-2.59112 -0.491065,-4.71112 -1.091256,-4.71112 -0.600191,0 -0.304987,-1.2 0.65601,-2.66666 1.959114,-2.989991 3.635246,-3.481808 3.635246,-1.06667 0,0.88889 0.948149,1.6 2.133334,1.6 1.173333,0 2.133333,0.48 2.133333,1.06667 0,0.58666 -0.96,1.06666 -2.133333,1.06666 -1.726985,0 -2.133334,0.71111 -2.133334,3.73333 0,3.072 0.393651,3.73334 2.222222,3.73334 1.300857,0 2.040163,0.55282 1.783117,1.33333 -0.473024,1.43633 -3.706059,2.086 -5.872005,1.17997 z m 10.12892,-0.64664 c -0.960019,-0.73333 -2.057735,-2.62917 -2.439368,-4.21299 -0.934814,-3.87955 3.685085,-8.80739 7.26154,-7.74554 3.194552,0.94846 5.048907,3.49385 5.048907,6.93042 0,5.13965 -5.834446,8.11159 -9.871079,5.02811 z m 6.175496,-4.11894 c 0.809123,-2.54931 -1.787375,-5.90705 -3.668725,-4.74432 -1.278472,0.79014 -1.595917,5.14749 -0.457913,6.28548 1.414703,1.41471 3.42701,0.66318 4.126638,-1.54116 z m 6.895583,-1.07213 c 0,-5.87183 0.201568,-6.47169 2.015256,-5.9974 1.10839,0.28985 2.628323,0.1481 3.377627,-0.315 0.749306,-0.46309 2.387702,-0.45216 3.64088,0.0243 1.263108,0.48024 3.079058,0.41828 4.074902,-0.13903 1.15878,-0.64848 2.55863,-0.59738 3.94387,0.14398 1.75,0.93657 2.14746,2.22818 2.14746,6.97842 0,4.37212 -0.38531,5.82914 -1.54155,5.82914 -1.08231,0 -1.63841,-1.50942 -1.86667,-5.06667 -0.23408,-3.6481 -0.77308,-5.06666 -1.92511,-5.06666 -1.15203,0 -1.691023,1.41856 -1.925109,5.06666 -0.269279,4.19657 -0.681434,5.06667 -2.4,5.06667 -1.743932,0 -2.074889,-0.75559 -2.074889,-4.73705 0,-4.90109 -1.675609,-7.30216 -3.302924,-4.73294 C 91.118316,106.5385 90.691983,109 90.682999,111.2 c -0.01159,2.83718 -0.48146,4 -1.616334,4 -1.247834,0 -1.6,-1.43604 -1.6,-6.52441 z m 24.165325,4.57375 c -3.43,-3.7901 -1.66952,-9.87065 3.28358,-11.34121 3.57646,-1.06185 8.19635,3.86599 7.26154,7.74554 -1.29854,5.38909 -7.12437,7.37558 -10.54512,3.59567 z m 6.23467,-4.98268 c 0,-3.56767 -3.00414,-5.03875 -4.15664,-2.03542 -1.03956,2.70906 0.34702,5.93987 2.38111,5.54815 1.18138,-0.22752 1.77553,-1.40299 1.77553,-3.51273 z M 124.8,106.01739 c 0,-8.239613 0.16948,-8.950725 2.13333,-8.950725 1.57938,0 2.13333,0.711112 2.13333,2.738547 0,2.153088 0.41103,2.608088 1.92263,2.128328 4.36422,-1.38515 7.78348,5.16199 5.25723,10.06646 -1.14985,2.23232 -2.19392,2.69122 -6.41005,2.81738 L 124.8,114.9681 Z m 8,2.23466 c 0,-4.61082 -3.09469,-4.28412 -3.54115,0.37384 -0.28368,2.95961 -0.0141,3.49624 1.6,3.18539 1.36028,-0.26197 1.94115,-1.32702 1.94115,-3.55923 z m 6.93333,0.54795 c 0,-5.68889 0.23704,-6.4 2.13333,-6.4 1.8963,0 2.13334,0.71111 2.13334,6.4 0,5.68888 -0.23704,6.4 -2.13334,6.4 -1.89629,0 -2.13333,-0.71112 -2.13333,-6.4 z M 147.2,106.13333 c 0,-7.348146 0.30326,-9.066665 1.6,-9.066665 1.29673,0 1.6,1.718519 1.6,9.066665 0,7.34815 -0.30327,9.06667 -1.6,9.06667 -1.29674,0 -1.6,-1.71852 -1.6,-9.06667 z m 8.59622,6.99623 c -3.60406,-3.60407 -2.67309,-9.12885 1.82656,-10.83961 3.57146,-1.35786 7.71055,1.2911 7.71055,4.93463 0,2.30841 -0.47149,2.64208 -3.73333,2.64208 -2.05334,0 -3.73334,0.48 -3.73334,1.06667 0,0.58667 1.72,1.06667 3.82222,1.06667 4.78403,0 4.46935,2.5156 -0.3748,2.99622 -2.25363,0.2236 -4.02778,-0.37658 -5.51786,-1.86666 z M 161.6,105.6 c -0.36258,-0.58667 -1.35091,-1.06667 -2.19629,-1.06667 -0.84538,0 -1.53705,0.48 -1.53705,1.06667 0,0.58667 0.98833,1.06666 2.19629,1.06666 1.20796,0 1.89963,-0.47999 1.53705,-1.06666 z m -21.28778,-6.326297 c -0.78885,-1.276375 1.21773,-2.541042 2.63851,-1.662951 1.19292,0.737262 0.40978,2.655918 -1.08407,2.655918 -0.51741,0 -1.21691,-0.446838 -1.55444,-0.992967 z"
         id="path1430"
         inkscape:connector-curvature="0" />
    </g>
  </g>
</svg>
